name C:\Users\u0101727\Documents\MyRepositories\upper-imu-dc\OpenSim\subject0\MA\ResultsMA\grid_4nodes_9dim\angles_14.mot
datacolumns 10
datarows 33
range 1475.01000000 1475.33000000
endheader 
time	clav_prot	clav_elev	scapula_abduction	scapula_elevation	scapula_upward_rot	scapula_winging	plane_elv	shoulder_elv	axial_rot	
       1475.01000000	        -50.00000000	         20.00000000	         -3.33333333	        -10.00000000	          0.00000000	        -20.00000000	        -90.00000000	         26.66666667	         30.00000000	
       1475.02000000	        -38.33333333	         20.00000000	         -3.33333333	        -10.00000000	          0.00000000	        -20.00000000	        -90.00000000	         26.66666667	         30.00000000	
       1475.03000000	        -26.66666667	         20.00000000	         -3.33333333	        -10.00000000	          0.00000000	        -20.00000000	        -90.00000000	         26.66666667	         30.00000000	
       1475.04000000	        -15.00000000	         20.00000000	         -3.33333333	        -10.00000000	          0.00000000	        -20.00000000	        -90.00000000	         26.66666667	         30.00000000	
       1475.05000000	        -50.00000000	        -10.00000000	         15.00000000	        -10.00000000	          0.00000000	        -20.00000000	        -90.00000000	         26.66666667	         30.00000000	
       1475.06000000	        -38.33333333	        -10.00000000	         15.00000000	        -10.00000000	          0.00000000	        -20.00000000	        -90.00000000	         26.66666667	         30.00000000	
       1475.07000000	        -26.66666667	        -10.00000000	         15.00000000	        -10.00000000	          0.00000000	        -20.00000000	        -90.00000000	         26.66666667	         30.00000000	
       1475.08000000	        -15.00000000	        -10.00000000	         15.00000000	        -10.00000000	          0.00000000	        -20.00000000	        -90.00000000	         26.66666667	         30.00000000	
       1475.09000000	        -50.00000000	          0.00000000	         15.00000000	        -10.00000000	          0.00000000	        -20.00000000	        -90.00000000	         26.66666667	         30.00000000	
       1475.10000000	        -38.33333333	          0.00000000	         15.00000000	        -10.00000000	          0.00000000	        -20.00000000	        -90.00000000	         26.66666667	         30.00000000	
       1475.11000000	        -26.66666667	          0.00000000	         15.00000000	        -10.00000000	          0.00000000	        -20.00000000	        -90.00000000	         26.66666667	         30.00000000	
       1475.12000000	        -15.00000000	          0.00000000	         15.00000000	        -10.00000000	          0.00000000	        -20.00000000	        -90.00000000	         26.66666667	         30.00000000	
       1475.13000000	        -50.00000000	         10.00000000	         15.00000000	        -10.00000000	          0.00000000	        -20.00000000	        -90.00000000	         26.66666667	         30.00000000	
       1475.14000000	        -38.33333333	         10.00000000	         15.00000000	        -10.00000000	          0.00000000	        -20.00000000	        -90.00000000	         26.66666667	         30.00000000	
       1475.15000000	        -26.66666667	         10.00000000	         15.00000000	        -10.00000000	          0.00000000	        -20.00000000	        -90.00000000	         26.66666667	         30.00000000	
       1475.16000000	        -15.00000000	         10.00000000	         15.00000000	        -10.00000000	          0.00000000	        -20.00000000	        -90.00000000	         26.66666667	         30.00000000	
       1475.17000000	        -50.00000000	         20.00000000	         15.00000000	        -10.00000000	          0.00000000	        -20.00000000	        -90.00000000	         26.66666667	         30.00000000	
       1475.18000000	        -38.33333333	         20.00000000	         15.00000000	        -10.00000000	          0.00000000	        -20.00000000	        -90.00000000	         26.66666667	         30.00000000	
       1475.19000000	        -26.66666667	         20.00000000	         15.00000000	        -10.00000000	          0.00000000	        -20.00000000	        -90.00000000	         26.66666667	         30.00000000	
       1475.20000000	        -15.00000000	         20.00000000	         15.00000000	        -10.00000000	          0.00000000	        -20.00000000	        -90.00000000	         26.66666667	         30.00000000	
       1475.21000000	        -50.00000000	        -10.00000000	        -40.00000000	         -3.33333333	          0.00000000	        -20.00000000	        -90.00000000	         26.66666667	         30.00000000	
       1475.22000000	        -38.33333333	        -10.00000000	        -40.00000000	         -3.33333333	          0.00000000	        -20.00000000	        -90.00000000	         26.66666667	         30.00000000	
       1475.23000000	        -26.66666667	        -10.00000000	        -40.00000000	         -3.33333333	          0.00000000	        -20.00000000	        -90.00000000	         26.66666667	         30.00000000	
       1475.24000000	        -15.00000000	        -10.00000000	        -40.00000000	         -3.33333333	          0.00000000	        -20.00000000	        -90.00000000	         26.66666667	         30.00000000	
       1475.25000000	        -50.00000000	          0.00000000	        -40.00000000	         -3.33333333	          0.00000000	        -20.00000000	        -90.00000000	         26.66666667	         30.00000000	
       1475.26000000	        -38.33333333	          0.00000000	        -40.00000000	         -3.33333333	          0.00000000	        -20.00000000	        -90.00000000	         26.66666667	         30.00000000	
       1475.27000000	        -26.66666667	          0.00000000	        -40.00000000	         -3.33333333	          0.00000000	        -20.00000000	        -90.00000000	         26.66666667	         30.00000000	
       1475.28000000	        -15.00000000	          0.00000000	        -40.00000000	         -3.33333333	          0.00000000	        -20.00000000	        -90.00000000	         26.66666667	         30.00000000	
       1475.29000000	        -50.00000000	         10.00000000	        -40.00000000	         -3.33333333	          0.00000000	        -20.00000000	        -90.00000000	         26.66666667	         30.00000000	
       1475.30000000	        -38.33333333	         10.00000000	        -40.00000000	         -3.33333333	          0.00000000	        -20.00000000	        -90.00000000	         26.66666667	         30.00000000	
       1475.31000000	        -26.66666667	         10.00000000	        -40.00000000	         -3.33333333	          0.00000000	        -20.00000000	        -90.00000000	         26.66666667	         30.00000000	
       1475.32000000	        -15.00000000	         10.00000000	        -40.00000000	         -3.33333333	          0.00000000	        -20.00000000	        -90.00000000	         26.66666667	         30.00000000	
       1475.33000000	        -50.00000000	         20.00000000	        -40.00000000	         -3.33333333	          0.00000000	        -20.00000000	        -90.00000000	         26.66666667	         30.00000000	
